<?xml version="1.0" standalone="no"?>
<!DOCTYPE svg PUBLIC "-//W3C//DTD SVG 20010904//EN"
 "http://www.w3.org/TR/2001/REC-SVG-20010904/DTD/svg10.dtd">
<svg version="1.0" xmlns="http://www.w3.org/2000/svg"
 width="1280.000000pt" height="1280.000000pt" viewBox="0 0 1280.000000 1280.000000"
 preserveAspectRatio="xMidYMid meet">
<metadata>
Created by potrace 1.15, written by Peter Selinger 2001-2017
</metadata>
<g transform="translate(0.000000,1280.000000) scale(0.100000,-0.100000)"
fill="#000000" stroke="none">
<path d="M6110 12538 c-12 -98 -48 -214 -71 -229 -20 -12 -39 -202 -39 -396
l0 -193 -30 0 c-24 0 -33 7 -50 40 -11 22 -26 40 -34 40 -7 0 -21 -18 -31 -40
l-18 -40 -64 0 c-56 0 -63 -2 -63 -20 0 -16 -7 -20 -30 -20 -22 0 -30 5 -30
17 0 23 -49 73 -72 73 -17 0 -18 9 -17 105 1 68 -3 111 -11 120 -6 8 -10 26
-8 41 l3 27 -80 -2 c-43 -1 -83 -5 -87 -7 -4 -3 -9 -20 -10 -37 -1 -18 -4 35
-8 117 -4 104 -10 151 -18 154 -7 2 -12 12 -12 23 0 12 -7 19 -20 19 -11 0
-20 6 -20 14 0 8 -8 13 -17 12 -15 -1 -19 9 -21 50 l-3 50 -34 -32 c-19 -18
-35 -41 -35 -52 0 -11 -7 -25 -15 -32 -8 -7 -15 -21 -15 -31 0 -11 -4 -19 -10
-19 -5 0 -10 -11 -10 -25 0 -14 -3 -25 -7 -25 -5 0 -8 -64 -8 -142 l0 -143
-142 -3 -143 -3 0 -49 0 -50 -42 0 c-24 0 -53 -3 -65 -6 l-23 -6 -1 -512 c-1
-281 -5 -495 -8 -476 -4 26 -11 35 -26 35 -19 0 -20 9 -26 325 -3 179 -7 326
-8 328 0 1 -14 2 -31 2 -23 0 -30 4 -30 20 0 27 -26 25 -55 -5 -16 -15 -25
-36 -25 -55 0 -16 -4 -30 -10 -30 -5 0 -10 16 -10 35 0 19 -4 35 -10 35 -5 0
-10 20 -10 45 0 43 -1 45 -29 45 -34 0 -41 -17 -41 -102 0 -45 -3 -58 -15 -58
-12 0 -15 19 -15 115 l0 115 -180 0 -180 0 0 -60 c0 -53 -2 -60 -20 -60 -20 0
-20 7 -20 315 l0 314 -66 21 c-36 11 -72 20 -80 20 -9 0 -14 11 -14 30 0 25
-4 30 -25 30 -14 0 -25 4 -25 9 0 5 -10 11 -22 13 -17 2 -24 11 -26 33 -6 50
-42 63 -42 15 0 -28 -2 -30 -40 -30 -22 0 -40 -4 -40 -10 0 -5 -13 -10 -30
-10 -16 0 -30 -4 -30 -10 0 -5 -7 -10 -15 -10 -10 0 -15 -10 -15 -30 l0 -30
-65 0 -65 0 0 -354 c0 -381 2 -366 -51 -366 -16 0 -19 7 -19 44 0 24 -3 64 -6
90 -7 46 -7 46 -45 46 -39 0 -39 0 -39 -40 0 -39 -1 -40 -35 -40 l-35 0 0 -55
0 -55 -95 0 -95 0 0 -34 c0 -19 -4 -38 -10 -41 -6 -4 -10 47 -10 144 0 94 -4
151 -10 151 -5 0 -10 11 -10 25 0 25 -1 25 -84 25 -62 0 -87 4 -96 15 -7 8
-16 12 -21 9 -5 -3 -9 12 -9 33 l0 38 -62 -2 c-35 -1 -96 -2 -135 -2 l-73 -1
0 -40 0 -40 -110 0 -110 0 0 -25 c0 -14 -5 -25 -11 -25 -7 0 -9 -16 -4 -50 7
-49 6 -50 -18 -50 -14 0 -28 3 -31 8 -2 4 -21 77 -41 162 -19 85 -38 163 -41
173 -4 12 0 17 15 17 26 0 31 10 20 38 -7 19 -15 22 -64 22 -30 0 -55 5 -55
10 0 6 -52 10 -135 10 -132 0 -136 1 -146 23 -14 32 -48 52 -62 38 -14 -14
-223 -15 -232 -1 -3 6 -24 10 -46 10 -24 0 -38 -4 -34 -10 3 -5 -3 -10 -14
-10 -25 0 -26 -4 -5 -36 l17 -25 -49 3 c-95 5 -205 -2 -199 -12 4 -6 -12 -10
-39 -10 -25 0 -46 -4 -46 -8 0 -17 35 -40 65 -44 26 -3 80 -63 405 -455 l375
-451 145 -4 c142 -4 142 -4 -27 -3 l-172 0 40 -41 c22 -22 39 -45 37 -51 -2
-6 58 -75 132 -154 74 -79 -250 239 -720 706 l-855 850 -3 -164 c-2 -138 0
-167 13 -181 9 -10 178 -152 375 -316 l360 -299 0 -68 c0 -52 -3 -66 -13 -61
-6 4 -51 36 -99 71 -48 34 -90 63 -93 63 -3 0 -5 -7 -5 -16 0 -8 -4 -12 -10
-9 -5 3 -10 -1 -10 -9 0 -9 -4 -16 -10 -16 -5 0 -10 -22 -10 -50 0 -54 -3 -56
-40 -35 -32 18 -40 18 -40 0 0 -17 -16 -20 -25 -5 -9 15 -35 12 -35 -5 0 -8 9
-19 19 -25 11 -5 26 -16 33 -24 8 -7 29 -21 46 -30 18 -9 37 -27 42 -40 5 -13
16 -26 24 -29 9 -4 16 -18 16 -34 0 -26 9 -32 105 -77 l104 -48 3 -56 3 -56
77 -31 78 -30 0 -122 c0 -89 -3 -123 -12 -123 -7 0 -111 17 -232 37 l-219 37
-34 -39 -33 -38 0 -197 0 -196 38 -37 38 -37 287 0 287 0 0 -120 0 -120 -45 0
-45 0 0 -40 0 -40 45 0 45 0 0 -55 c0 -43 -3 -55 -15 -55 -9 0 -39 -16 -68
-35 l-52 -35 -280 0 c-214 -1 -286 -4 -304 -14 -22 -12 -23 -14 -6 -23 19 -11
3 -17 -138 -55 -26 -6 -47 -15 -47 -18 0 -3 45 -16 100 -30 55 -13 100 -27
100 -31 0 -4 -8 -10 -17 -14 -17 -6 -16 -7 2 -18 21 -13 164 -24 418 -33 l157
-5 0 -50 c0 -42 -3 -49 -20 -49 -17 0 -20 -7 -20 -40 l0 -40 -52 0 c-92 0
-123 -9 -142 -41 -9 -16 -24 -29 -32 -29 -8 0 -14 -9 -14 -20 0 -11 5 -20 12
-20 7 0 22 -12 33 -26 19 -24 27 -26 105 -27 l85 -2 3 -90 c2 -49 8 -92 14
-96 6 -4 10 -38 9 -83 -1 -61 2 -76 14 -76 8 0 15 -8 15 -19 0 -10 9 -21 20
-24 14 -3 20 -14 20 -31 0 -23 4 -26 35 -26 19 0 35 -4 35 -10 0 -5 18 -10 40
-10 22 0 40 -4 40 -10 0 -5 -16 -10 -35 -10 -24 0 -35 -5 -35 -15 0 -11 -11
-15 -40 -15 -22 0 -40 -4 -40 -9 0 -5 -12 -11 -27 -13 -24 -3 -28 -8 -31 -40
l-3 -38 -50 0 c-27 0 -49 -4 -49 -10 0 -5 22 -10 49 -10 40 0 50 -3 54 -20 4
-15 14 -20 41 -20 l36 0 0 -87 c0 -81 -2 -89 -27 -115 l-27 -28 24 -25 23 -25
-201 0 c-177 0 -202 -2 -202 -16 0 -26 -26 -44 -64 -44 l-36 0 0 -140 0 -140
50 0 c28 0 50 -4 50 -10 0 -6 50 -10 130 -10 128 0 130 0 120 -20 -10 -18 -21
-20 -140 -20 l-130 0 0 -75 0 -75 -65 0 -65 0 0 -40 c0 -33 -3 -40 -20 -40
-18 0 -20 -7 -20 -75 l0 -75 -80 0 -80 0 0 -60 0 -60 -140 0 -140 0 0 -124 0
-124 -47 -25 c-65 -34 -67 -56 -6 -85 26 -12 54 -22 61 -22 6 0 12 -4 12 -10
0 -5 16 -10 36 -10 21 0 33 -4 29 -10 -4 -6 11 -10 38 -10 24 0 46 -3 50 -6 3
-4 51 -6 107 -5 85 2 100 0 100 -13 0 -14 33 -16 280 -16 273 0 280 0 280 -20
0 -17 -7 -20 -40 -20 -29 0 -40 -4 -40 -15 0 -12 -14 -15 -69 -15 l-70 0 -3
-32 -3 -33 -203 0 c-132 0 -202 -4 -202 -10 0 -18 -124 -135 -143 -135 -15 0
-17 -12 -17 -103 0 -59 5 -108 11 -114 16 -16 -91 -50 -203 -64 -54 -7 -98
-15 -98 -19 0 -4 46 -13 103 -20 97 -12 213 -48 228 -71 12 -20 202 -39 397
-39 l192 0 0 -30 c0 -24 -7 -33 -40 -50 -22 -11 -40 -26 -40 -34 0 -7 18 -21
40 -31 l40 -18 0 -64 c0 -56 2 -63 20 -63 16 0 20 -7 20 -30 0 -22 -5 -30 -18
-30 -23 0 -72 -50 -72 -73 0 -15 -12 -17 -105 -16 -68 1 -111 -3 -120 -11 -8
-6 -26 -10 -41 -8 l-27 3 2 -80 c1 -43 5 -83 7 -87 3 -4 20 -9 37 -10 18 -1
-35 -4 -117 -8 -104 -4 -151 -10 -154 -18 -2 -7 -12 -12 -23 -12 -12 0 -19 -7
-19 -20 0 -11 -6 -20 -14 -20 -8 0 -13 -8 -12 -17 1 -15 -9 -19 -50 -21 l-50
-3 32 -34 c18 -19 41 -35 52 -35 11 0 25 -7 32 -15 7 -8 21 -15 31 -15 11 0
19 -4 19 -10 0 -5 11 -10 25 -10 14 0 25 -3 25 -7 0 -5 64 -8 142 -8 l143 0 3
-142 3 -143 49 0 50 0 0 -42 c0 -24 3 -53 6 -66 l6 -22 512 -1 c281 -1 495 -5
476 -8 -26 -4 -35 -11 -35 -26 0 -19 -9 -20 -325 -26 -179 -3 -326 -7 -327 -8
-2 0 -3 -14 -3 -31 0 -23 -4 -30 -20 -30 -27 0 -25 -26 5 -55 15 -16 36 -25
55 -25 16 0 30 -4 30 -10 0 -5 -16 -10 -35 -10 -19 0 -35 -4 -35 -10 0 -5 -20
-10 -45 -10 -43 0 -45 -1 -45 -29 0 -34 17 -41 103 -41 44 0 57 -3 57 -15 0
-12 -19 -15 -115 -15 l-115 0 0 -180 0 -180 60 0 c53 0 60 -2 60 -20 0 -20 -7
-20 -315 -20 l-314 0 -21 -69 c-11 -37 -20 -73 -20 -80 0 -6 -13 -11 -28 -11
-21 0 -28 -5 -29 -22 -1 -11 -6 -24 -11 -27 -5 -3 -11 -15 -13 -26 -3 -14 -14
-21 -34 -23 -50 -6 -63 -42 -15 -42 28 0 30 -2 30 -40 0 -22 5 -40 10 -40 6 0
10 -13 10 -30 0 -16 5 -30 10 -30 6 0 10 -7 10 -15 0 -10 10 -15 30 -15 l30 0
0 -65 0 -65 354 0 c381 0 366 2 366 -51 0 -16 -7 -19 -44 -19 -24 0 -64 -3
-90 -6 -46 -7 -46 -7 -46 -45 0 -39 0 -39 40 -39 39 0 40 -1 40 -35 l0 -35 55
0 55 0 0 -95 0 -95 34 0 c19 0 38 -5 41 -10 4 -6 -47 -10 -144 -10 -94 0 -151
-4 -151 -10 0 -5 -11 -10 -25 -10 -25 0 -25 -1 -25 -84 0 -62 -4 -87 -15 -96
-8 -7 -12 -16 -9 -21 3 -5 -12 -9 -33 -9 l-38 0 2 -62 c1 -35 2 -96 2 -135 l1
-73 40 0 40 0 0 -110 0 -110 25 0 c14 0 25 -5 25 -11 0 -7 16 -9 50 -4 49 7
50 6 50 -19 0 -32 7 -30 -193 -76 -156 -36 -162 -37 -167 -18 -5 21 -10 23
-41 15 -18 -5 -20 -12 -18 -58 2 -34 -1 -54 -9 -57 -9 -3 -12 -42 -12 -138 0
-131 -1 -135 -23 -145 -32 -14 -52 -48 -38 -62 14 -14 15 -223 1 -232 -5 -3
-10 -24 -10 -46 0 -24 4 -38 10 -34 6 3 10 -3 10 -14 0 -25 4 -26 36 -5 l25
17 -3 -49 c-5 -95 2 -205 12 -199 6 4 10 -12 10 -39 0 -25 4 -46 8 -46 17 0
40 35 44 65 3 26 63 80 455 405 l451 375 4 145 c4 143 4 143 3 -27 l0 -172 41
40 c22 22 45 39 51 37 6 -2 75 57 154 131 79 74 -182 -194 -581 -595 -399
-401 -780 -785 -847 -854 l-123 -125 168 1 167 2 293 348 c161 192 301 359
310 372 16 21 24 23 86 20 l68 -3 -71 -97 c-39 -54 -71 -100 -71 -103 0 -3 7
-5 16 -5 8 0 12 -4 9 -10 -3 -5 1 -10 9 -10 9 0 16 -4 16 -10 0 -5 23 -10 50
-10 54 0 56 -3 35 -40 -18 -32 -18 -40 0 -40 17 0 20 -16 5 -25 -15 -9 -12
-35 5 -35 8 0 19 9 25 19 5 11 16 26 24 33 7 8 21 29 30 46 9 18 27 37 40 42
13 5 26 16 29 24 4 9 18 16 34 16 26 0 32 9 77 105 l48 104 56 3 56 3 31 77
30 78 123 0 c91 0 122 -3 122 -12 0 -7 -16 -112 -37 -232 l-37 -219 40 -33 39
-34 195 0 196 0 37 38 37 38 0 287 0 287 120 0 120 0 0 -45 0 -45 40 0 40 0 0
45 0 46 58 -3 c40 -2 56 -7 54 -16 -1 -7 14 -36 33 -65 l35 -52 0 -280 c1
-214 4 -286 14 -304 12 -22 14 -23 23 -6 11 19 17 3 55 -137 6 -27 15 -48 18
-48 4 0 17 45 30 100 24 100 32 115 45 83 6 -17 7 -16 18 2 13 21 24 164 33
418 l5 157 50 0 c42 0 49 -3 49 -20 0 -17 7 -20 40 -20 l40 0 0 -52 c0 -92 9
-123 41 -142 16 -9 29 -24 29 -32 0 -8 9 -14 20 -14 11 0 20 6 20 13 0 7 13
23 29 35 28 21 29 24 29 104 l0 83 88 3 c49 2 91 8 95 14 4 6 38 10 83 9 61
-1 76 2 76 14 0 8 8 15 19 15 10 0 21 9 24 20 3 14 14 20 31 20 23 0 26 4 26
35 0 19 5 35 10 35 6 0 10 15 10 34 0 19 5 38 10 41 6 4 10 -8 10 -29 0 -25 4
-36 15 -36 11 0 15 -11 15 -40 0 -22 4 -40 9 -40 5 0 11 -12 13 -27 3 -25 7
-28 38 -28 l35 -1 3 -52 c4 -68 20 -67 24 0 2 39 7 53 18 53 10 0 16 12 18 38
l3 37 87 0 c80 0 88 -2 114 -27 l28 -27 25 24 25 23 0 -201 c0 -177 2 -202 16
-202 26 0 44 -26 44 -64 l0 -36 140 0 140 0 0 50 c0 28 5 50 10 50 6 0 10 50
10 130 0 128 0 130 20 120 18 -10 20 -21 20 -140 l0 -130 75 0 75 0 0 -65 0
-65 40 0 c33 0 40 -3 40 -20 0 -18 7 -20 75 -20 l75 0 0 -80 0 -80 60 0 60 0
0 -140 0 -140 124 0 124 0 25 -47 c34 -65 56 -67 85 -6 12 26 22 54 22 61 0 6
5 12 10 12 6 0 10 16 10 36 0 21 4 33 10 29 6 -4 10 11 10 38 0 24 3 46 6 50
4 3 6 51 5 107 -2 85 0 100 13 100 14 0 16 33 16 280 0 273 0 280 20 280 17 0
20 -7 20 -40 0 -29 4 -40 15 -40 12 0 15 -14 15 -69 l0 -70 33 -3 32 -3 0
-203 c0 -132 4 -202 10 -202 18 0 135 -124 135 -143 0 -15 12 -17 103 -17 59
0 108 5 114 11 16 16 50 -91 64 -203 7 -54 15 -98 19 -98 4 0 13 46 20 103 12
97 48 213 71 228 20 12 39 202 39 397 l0 192 30 0 c24 0 33 -7 50 -40 11 -22
26 -40 34 -40 7 0 21 18 31 40 l18 40 64 0 c56 0 63 2 63 20 0 16 7 20 30 20
22 0 30 -5 30 -17 0 -23 49 -73 72 -73 17 0 18 -9 17 -105 -1 -68 3 -111 11
-120 6 -8 10 -26 8 -41 l-3 -27 80 2 c43 1 83 5 87 7 4 3 9 20 10 37 1 18 4
-35 8 -117 4 -104 10 -151 18 -154 7 -2 12 -12 12 -23 0 -12 7 -19 20 -19 11
0 19 -5 18 -12 -2 -7 6 -12 17 -13 17 0 20 -8 23 -51 l3 -50 34 32 c19 18 35
41 35 52 0 11 7 25 15 32 8 7 15 21 15 31 0 11 5 19 10 19 6 0 10 11 10 25 0
14 3 25 8 25 4 0 7 64 7 142 l0 143 143 3 142 3 0 49 0 50 43 0 c23 0 52 3 65
6 l22 6 1 512 c1 281 5 495 8 476 4 -26 11 -35 26 -35 19 0 20 -9 26 -325 3
-179 7 -326 8 -327 0 -2 15 -3 31 -3 23 0 30 -4 30 -20 0 -27 26 -25 55 5 16
15 25 36 25 55 0 16 5 30 10 30 6 0 10 -16 10 -35 0 -19 5 -35 10 -35 6 0 10
-20 10 -45 0 -43 1 -45 29 -45 34 0 41 17 41 103 0 44 3 57 15 57 12 0 15 -19
15 -115 l0 -115 180 0 180 0 0 60 c0 53 2 60 20 60 20 0 20 -7 20 -315 l0
-314 69 -21 c37 -11 73 -20 80 -20 6 0 11 -13 11 -28 0 -21 5 -28 22 -29 11
-1 24 -6 27 -11 3 -5 15 -11 26 -13 14 -3 21 -14 23 -34 6 -50 42 -63 42 -15
0 28 2 30 40 30 22 0 40 5 40 10 0 6 14 10 30 10 17 0 30 5 30 10 0 6 7 10 15
10 10 0 15 10 15 30 l0 30 65 0 65 0 0 354 c0 381 -2 366 51 366 16 0 19 -7
19 -44 0 -24 3 -64 6 -90 7 -46 7 -46 45 -46 39 0 39 0 39 40 0 39 1 40 35 40
l35 0 0 55 0 55 95 0 95 0 0 34 c0 19 5 38 10 41 6 4 10 -47 10 -144 0 -94 4
-151 10 -151 6 0 10 -11 10 -25 0 -25 1 -25 84 -25 62 0 87 -4 96 -15 7 -8 16
-12 21 -9 5 3 9 -12 9 -33 l0 -38 62 2 c35 1 96 2 136 2 l72 1 0 40 0 40 110
0 110 0 0 25 c0 14 5 25 11 25 7 0 9 16 4 50 -7 49 -6 50 18 50 14 0 28 -3 31
-8 2 -4 21 -77 41 -162 19 -85 38 -163 41 -172 4 -13 0 -18 -15 -18 -26 0 -31
-10 -20 -38 8 -21 14 -23 61 -21 33 2 53 -1 56 -9 3 -9 42 -12 138 -12 131 0
135 -1 145 -23 14 -32 48 -52 62 -38 14 14 223 15 232 1 8 -13 85 -13 85 0 0
6 7 10 15 10 19 0 19 5 -2 36 l-16 25 49 -2 c98 -5 205 1 199 11 -4 6 12 10
39 10 25 0 46 4 46 8 0 17 -37 42 -63 42 -23 0 -80 64 -404 454 l-378 454
-145 4 c-142 4 -142 4 27 3 l172 0 -40 41 c-22 22 -39 46 -37 51 2 6 -58 76
-132 154 -74 79 250 -238 720 -705 l855 -849 3 158 c1 88 0 165 -2 171 -3 8
-685 585 -744 629 -2 2 -2 33 0 70 l3 67 98 -71 c54 -39 100 -71 102 -71 3 0
5 7 5 16 0 8 5 12 10 9 6 -3 10 1 10 9 0 9 5 16 10 16 6 0 10 23 10 50 0 53
10 61 44 35 25 -19 36 -19 36 0 0 17 16 20 25 5 9 -15 35 -12 35 5 0 8 -12 22
-27 32 -16 10 -30 20 -33 24 -3 3 -20 14 -38 23 -18 9 -37 27 -42 40 -5 13
-16 26 -24 29 -10 4 -16 18 -16 35 0 27 -7 33 -105 78 l-104 48 -3 55 -3 55
-77 31 -78 30 0 123 c0 106 2 122 16 122 9 0 113 -17 232 -37 l215 -37 33 40
34 39 0 195 0 196 -38 37 -38 37 -287 0 -287 0 0 120 0 120 45 0 45 0 0 40 0
40 -45 0 -46 0 3 58 c2 43 7 57 18 57 9 0 39 15 66 33 l51 32 279 0 c213 1
285 4 303 14 23 13 23 14 6 24 -20 11 1 19 133 52 28 8 52 17 52 20 0 3 -45
17 -100 30 -55 14 -100 28 -100 31 0 4 8 10 18 14 16 6 15 7 -3 18 -21 13
-164 24 -417 33 l-158 5 0 50 c0 42 3 49 20 49 17 0 20 7 20 40 l0 40 53 0
c91 0 122 9 141 41 9 16 24 29 32 29 8 0 14 9 14 20 0 11 -6 20 -13 20 -7 0
-23 14 -36 31 -22 30 -24 30 -104 28 l-82 -2 -3 89 c-2 49 -8 91 -14 95 -6 4
-10 38 -9 83 1 61 -2 76 -14 76 -8 0 -15 8 -15 19 0 10 -9 21 -20 24 -14 3
-20 14 -20 31 0 23 -4 26 -35 26 -19 0 -35 5 -35 10 0 6 -15 10 -34 10 -19 0
-38 5 -41 10 -4 6 8 10 29 10 25 0 36 4 36 15 0 11 11 15 40 15 22 0 40 4 40
9 0 5 12 11 28 13 23 3 27 8 30 41 l3 37 50 0 c27 0 49 5 49 10 0 6 -22 10
-49 10 -40 0 -50 3 -54 20 -4 15 -14 20 -41 20 l-36 0 0 87 c0 81 2 89 27 115
l27 28 -24 25 -23 25 201 0 c177 0 202 2 202 16 0 26 26 44 64 44 l36 0 0 140
0 140 -50 0 c-27 0 -50 5 -50 10 0 6 -50 10 -130 10 -128 0 -130 0 -120 20 10
18 21 20 140 20 l130 0 0 75 0 75 65 0 65 0 0 40 c0 33 3 40 20 40 18 0 20 7
20 75 l0 75 80 0 80 0 0 60 0 60 140 0 140 0 0 124 0 124 48 25 c64 34 66 56
5 85 -26 12 -54 22 -60 22 -7 0 -13 5 -13 10 0 6 -16 10 -36 10 -21 0 -33 4
-29 10 4 6 -11 10 -38 10 -24 0 -46 3 -50 6 -3 4 -51 6 -107 5 -85 -2 -100 0
-100 13 0 14 -33 16 -280 16 -273 0 -280 0 -280 20 0 17 7 20 40 20 29 0 40 4
40 15 0 12 14 15 69 15 l70 0 3 33 3 32 203 0 c132 0 202 4 202 10 0 18 124
135 143 135 15 0 17 12 17 103 0 59 -5 108 -11 114 -16 16 91 50 204 64 53 7
97 15 97 19 0 4 -46 13 -102 20 -98 12 -214 48 -229 71 -12 20 -202 39 -396
39 l-193 0 0 30 c0 24 7 33 40 50 22 11 40 26 40 34 0 7 -18 21 -40 31 l-40
18 0 64 c0 56 -2 63 -20 63 -16 0 -20 7 -20 30 0 22 5 30 18 30 23 0 72 50 72
73 0 15 12 17 105 16 68 -1 111 3 120 11 8 6 26 10 41 8 l27 -3 -2 80 c-1 43
-5 83 -7 87 -3 4 -20 9 -37 10 -18 1 35 4 117 8 104 4 151 10 154 18 2 7 12
12 23 12 12 0 19 7 19 20 0 11 6 20 14 20 8 0 13 8 12 18 -1 14 9 18 52 20
l53 3 -25 20 c-14 11 -26 27 -26 35 0 9 -11 14 -29 14 -16 0 -34 7 -41 15 -7
8 -21 15 -31 15 -11 0 -19 5 -19 10 0 6 -11 10 -25 10 -14 0 -25 3 -25 8 0 4
-64 7 -142 7 l-143 0 -3 143 -3 142 -49 0 -50 0 0 43 c0 23 -3 52 -6 65 l-6
22 -512 1 c-281 1 -495 5 -476 8 26 4 35 11 35 26 0 19 9 20 325 26 179 3 326
7 328 8 1 0 2 15 2 31 0 23 4 30 20 30 27 0 25 26 -5 55 -15 16 -36 25 -55 25
-16 0 -30 5 -30 10 0 6 16 10 35 10 19 0 35 5 35 10 0 6 20 10 45 10 43 0 45
1 45 29 0 34 -17 41 -102 41 -45 0 -58 3 -58 15 0 12 19 15 115 15 l115 0 0
180 0 180 -60 0 c-53 0 -60 2 -60 20 0 20 7 20 315 20 l314 0 21 69 c11 37 20
73 20 80 0 6 13 11 28 11 21 0 28 5 29 22 1 11 6 24 11 27 5 3 11 15 13 26 3
14 14 21 34 23 50 6 63 42 15 42 -28 0 -30 2 -30 40 0 22 -4 40 -10 40 -5 0
-10 14 -10 30 0 17 -4 30 -10 30 -5 0 -10 7 -10 15 0 10 -10 15 -30 15 l-30 0
0 65 0 65 -354 0 c-381 0 -366 -2 -366 51 0 16 7 19 44 19 24 0 64 3 90 6 46
7 46 7 46 45 0 39 0 39 -40 39 -39 0 -40 1 -40 35 l0 35 -55 0 -55 0 0 95 0
95 -34 0 c-19 0 -38 5 -41 10 -4 6 47 10 144 10 94 0 151 4 151 10 0 6 11 10
25 10 25 0 25 1 25 84 0 62 4 87 15 96 8 7 12 16 9 21 -3 5 12 9 33 9 l38 0
-2 62 c-1 35 -2 96 -2 136 l-1 72 -40 0 -40 0 0 110 0 110 -25 0 c-14 0 -25 5
-25 11 0 8 -16 10 -50 5 -49 -7 -50 -6 -50 19 0 31 -7 29 193 75 156 36 162
37 167 18 5 -21 10 -23 41 -15 18 5 20 12 18 58 -2 34 1 54 9 57 9 3 12 42 12
138 0 131 1 135 23 145 32 14 52 48 38 62 -14 14 -15 223 -1 232 6 3 10 24 10
46 0 24 -4 38 -10 34 -5 -3 -10 3 -10 14 0 25 -4 26 -36 5 l-25 -17 3 49 c5
95 -2 205 -12 199 -6 -4 -10 12 -10 39 0 25 -4 46 -8 46 -17 0 -42 -37 -42
-63 0 -23 -64 -80 -454 -404 l-454 -378 -4 -145 c-4 -142 -4 -142 -3 27 l0
172 -41 -40 c-22 -22 -46 -39 -52 -37 -6 2 -75 -58 -154 -132 -79 -74 239 250
706 720 l849 855 -159 3 c-87 1 -164 0 -170 -2 -10 -4 -598 -700 -625 -738 -3
-5 -36 -8 -73 -6 l-68 3 71 98 c39 54 71 100 71 102 0 3 -7 5 -16 5 -8 0 -12
5 -9 10 3 6 -1 10 -9 10 -9 0 -16 5 -16 10 0 6 -22 10 -50 10 -53 0 -61 10
-35 44 19 25 19 36 0 36 -17 0 -20 16 -5 25 15 9 12 35 -5 35 -8 0 -19 -9 -25
-19 -5 -11 -16 -26 -24 -33 -7 -8 -21 -29 -30 -46 -9 -18 -27 -37 -40 -42 -13
-5 -26 -16 -29 -24 -4 -10 -18 -16 -35 -16 -27 0 -32 -7 -77 -105 l-47 -104
-56 -3 -56 -3 -31 -77 -30 -78 -122 0 c-92 0 -123 3 -123 13 0 6 16 111 37
231 l37 219 -39 34 -38 33 -197 0 -196 0 -37 -38 -37 -38 0 -287 0 -287 -120
0 -120 0 0 45 0 45 -40 0 -40 0 0 -45 0 -46 -57 3 c-48 3 -57 6 -58 23 -1 11
-16 40 -33 64 l-32 44 0 281 c-1 215 -4 287 -14 305 -12 22 -14 23 -23 6 -11
-19 -17 -3 -55 138 -6 26 -15 47 -18 47 -4 0 -17 -45 -30 -100 -24 -100 -32
-115 -45 -82 -6 16 -7 15 -18 -3 -13 -21 -24 -164 -33 -417 l-5 -158 -50 0
c-42 0 -49 3 -49 20 0 17 -7 20 -40 20 l-40 0 0 53 c0 91 -9 122 -41 141 -16
9 -29 24 -29 32 0 8 -9 14 -20 14 -11 0 -20 -6 -20 -13 0 -7 -13 -23 -29 -35
-28 -21 -29 -24 -29 -104 l0 -83 -88 -3 c-49 -2 -91 -8 -95 -14 -4 -6 -38 -10
-83 -9 -61 1 -76 -2 -76 -14 0 -8 -8 -15 -19 -15 -10 0 -21 -9 -24 -20 -3 -14
-14 -20 -31 -20 -23 0 -26 -4 -26 -35 0 -19 -4 -35 -10 -35 -5 0 -10 -15 -10
-34 0 -19 -4 -38 -10 -41 -6 -4 -10 8 -10 29 0 25 -4 36 -15 36 -11 0 -15 11
-15 40 0 22 -4 40 -9 40 -5 0 -11 12 -13 28 -3 23 -8 27 -40 30 l-38 3 0 50
c0 27 -4 49 -10 49 -5 0 -10 -22 -10 -49 0 -40 -3 -50 -20 -54 -15 -4 -20 -14
-20 -41 l0 -36 -87 0 c-81 0 -89 2 -115 27 l-28 27 -25 -24 -25 -23 0 201 c0
177 -2 202 -16 202 -26 0 -44 26 -44 64 l0 36 -140 0 -140 0 0 -50 c0 -27 -4
-50 -10 -50 -6 0 -10 -50 -10 -130 0 -128 0 -130 -20 -120 -18 10 -20 21 -20
140 l0 130 -75 0 -75 0 0 65 0 65 -40 0 c-33 0 -40 3 -40 20 0 18 -7 20 -75
20 l-75 0 0 80 0 80 -60 0 -60 0 0 140 0 140 -124 0 -124 0 -25 48 c-34 64
-56 66 -85 5 -12 -26 -22 -54 -22 -60 0 -7 -4 -13 -10 -13 -5 0 -10 -16 -10
-36 0 -21 -4 -33 -10 -29 -6 4 -10 -11 -10 -38 0 -24 -3 -46 -6 -50 -4 -3 -6
-51 -5 -107 2 -85 0 -100 -13 -100 -14 0 -16 -33 -16 -280 0 -273 0 -280 -20
-280 -17 0 -20 7 -20 40 0 29 -4 40 -15 40 -12 0 -15 14 -15 69 l0 70 -32 3
-33 3 0 203 c0 132 -4 202 -10 202 -18 0 -135 124 -135 143 0 15 -12 17 -103
17 -59 0 -108 -5 -114 -11 -16 -16 -50 91 -64 204 -7 53 -15 97 -19 97 -4 0
-13 -46 -20 -102z m-3883 -1445 c-20 -2 -52 -2 -70 0 -17 2 0 4 38 4 39 0 53
-2 32 -4z m-149 -100 c-42 -2 -114 -2 -160 0 -46 1 -11 3 77 3 88 0 125 -2 83
-3z m180 0 c-15 -2 -42 -2 -60 0 -18 2 -6 4 27 4 33 0 48 -2 33 -4z m8739
-265 c-1 -46 -3 -11 -3 77 0 88 2 125 3 83 2 -42 2 -114 0 -160z m100 -155
c-2 -21 -4 -6 -4 32 0 39 2 55 4 38 2 -18 2 -50 0 -70z m-100 -25 c-2 -18 -4
-6 -4 27 0 33 2 48 4 33 2 -15 2 -42 0 -60z m83 -8 c0 -5 -2 -10 -4 -10 -3 0
-8 5 -11 10 -3 6 -1 10 4 10 6 0 11 -4 11 -10z m-7090 -110 c0 -20 7 -20 1539
-20 1314 0 1558 -2 1672 -15 116 -13 345 -15 1665 -13 l1531 3 6 -200 c4 -110
7 -425 7 -701 0 -472 1 -504 20 -560 26 -79 26 -114 0 -114 -20 0 -20 -7 -20
-1539 0 -1314 -2 -1558 -15 -1672 -13 -116 -15 -345 -13 -1665 l3 -1531 -200
-6 c-110 -4 -425 -7 -700 -7 -470 0 -504 -1 -565 -20 -85 -26 -110 -26 -110 0
0 20 -7 20 -1539 20 -1314 0 -1558 2 -1672 15 -116 13 -345 15 -1665 13
l-1531 -3 -6 200 c-4 110 -7 425 -7 701 0 472 -1 504 -20 560 -26 79 -26 114
0 114 20 0 20 7 20 1539 0 1314 2 1558 15 1672 13 116 15 345 13 1665 l-3
1531 200 6 c110 4 427 7 705 8 465 0 509 2 555 19 70 26 115 26 115 0z m-2183
-8232 c-2 -18 -4 -6 -4 27 0 33 2 48 4 33 2 -15 2 -42 0 -60z m-100 -35 c-2
-21 -4 -6 -4 32 0 39 2 55 4 38 2 -18 2 -50 0 -70z m100 -245 c-1 -46 -3 -11
-3 77 0 88 2 125 3 83 2 -42 2 -114 0 -160z m8801 -115 c-15 -2 -42 -2 -60 0
-18 2 -6 4 27 4 33 0 48 -2 33 -4z m280 0 c-42 -2 -114 -2 -160 0 -46 1 -11 3
77 3 88 0 125 -2 83 -3z m-251 -100 c-20 -2 -52 -2 -70 0 -17 2 0 4 38 4 39 0
53 -2 32 -4z"/>
</g>
</svg>
